<svg width="24" height="24" viewBox="0 0 24 24" fill="none" xmlns="http://www.w3.org/2000/svg">
<path opacity="0.5" d="M17.9619 12.8567C18.5196 13.4144 18.5196 14.3185 17.9619 14.8761L15.9425 16.8955C15.8031 17.0349 15.5771 17.0349 15.4377 16.8955L13.4182 14.8761C12.8606 14.3185 12.8606 13.4144 13.4182 12.8567C13.9759 12.2991 14.88 12.2991 15.4377 12.8567L15.6898 13.1089L15.9425 12.8567C16.5002 12.2991 17.4043 12.2991 17.9619 12.8567Z" fill="#FB5D2D"/>
<path opacity="0.5" d="M3 9H20.5" stroke="#FB5D2D" stroke-width="1.8"/>
<path d="M3 3.90039H21C21.0552 3.90039 21.0996 3.94477 21.0996 4V20C21.0996 20.0552 21.0552 20.0996 21 20.0996H3C2.94477 20.0996 2.90039 20.0552 2.90039 20V4C2.90039 3.94477 2.94477 3.90039 3 3.90039Z" stroke="#FB5D2D" stroke-width="1.8"/>
</svg>
